<svg width="48" height="48" xmlns="http://www.w3.org/2000/svg">

 <g>
  <title>Layer 1</title>
  <path id="svg_1" fill="#E4D6A7" d="m8.425,41.55zm8.575,-12.25l-6.9,-6.9q-0.85,-0.85 -0.875,-2.1q-0.025,-1.25 0.825,-2.1l1.45,-1.5l11.2,11.1l-1.5,1.5q-0.85,0.85 -2.1,0.85t-2.1,-0.85zm14.8,-10.6l-11.1,-11.2l1.5,-1.45q0.85,-0.85 2.1,-0.825q1.25,0.025 2.1,0.875l6.9,6.9q0.85,0.85 0.85,2.1t-0.85,2.1l-1.5,1.5zm9.05,20.25l-25.75,-25.75l2.1,-2.1l25.8,25.8q0.4,0.4 0.375,1.025q-0.025,0.625 -0.425,1.025q-0.45,0.45 -1.05,0.45q-0.6,0 -1.05,-0.45z"/>
 </g>
</svg>